HIERARCHY
ROOT Hips
{
	OFFSET 0.000000 89.005402 0.000000
	CHANNELS 6 Xposition Yposition Zposition Xrotation Yrotation Zrotation
	JOINT Spine
	{
		OFFSET 0.116900 10.681000 0.373400
		CHANNELS 3 Xrotation Yrotation Zrotation
		JOINT Spine1
		{
			OFFSET 0.000000 13.840401 0.053500
			CHANNELS 3 Xrotation Yrotation Zrotation
			JOINT Spine2
			{
				OFFSET 0.000000 14.712700 -0.366200
				CHANNELS 3 Xrotation Yrotation Zrotation
				JOINT Neck
				{
					OFFSET 0.000000 35.415497 -3.314200
					CHANNELS 3 Xrotation Yrotation Zrotation
					JOINT Head
					{
						OFFSET 0.000000 16.899200 1.218300
						CHANNELS 3 Xrotation Yrotation Zrotation
						JOINT HeadTop_End
						{
							OFFSET 0.000000 22.206207 2.192500
							CHANNELS 3 Xrotation Yrotation Zrotation
							End Site
							{
								OFFSET 0.000000 22.314178 0.000000
							}
						}
					}
				}
				JOINT LeftShoulder
				{
					OFFSET 12.896400 26.716293 -4.548400
					CHANNELS 3 Xrotation Yrotation Zrotation
					JOINT LeftArm
					{
						OFFSET 19.027000 -4.857010 -1.718400
						CHANNELS 3 Xrotation Yrotation Zrotation
						JOINT LeftForeArm
						{
							OFFSET 24.179897 0.000000 0.000000
							CHANNELS 3 Xrotation Yrotation Zrotation
							JOINT LeftHand
							{
								OFFSET 27.156403 0.000000 0.000000
								CHANNELS 3 Xrotation Yrotation Zrotation
								JOINT LeftHandIndex1
								{
									OFFSET 16.441200 0.000000 0.000000
									CHANNELS 3 Xrotation Yrotation Zrotation
									JOINT LeftHandIndex2
									{
										OFFSET 4.821899 0.000000 0.000000
										CHANNELS 3 Xrotation Yrotation Zrotation
										JOINT LeftHandIndex3
										{
											OFFSET 6.386497 0.000000 0.000000
											CHANNELS 3 Xrotation Yrotation Zrotation
											JOINT LeftHandIndex4
											{
												OFFSET 5.188988 0.000000 0.000000
												CHANNELS 3 Xrotation Yrotation Zrotation
												End Site
												{
													OFFSET -0.178703 5.185913 0.000177
												}
											}
										}
									}
								}
								JOINT LeftHandThumb1
								{
									OFFSET 6.534897 -5.032593 5.900300
									CHANNELS 3 Xrotation Yrotation Zrotation
									JOINT LeftHandThumb2
									{
										OFFSET 3.818176 -2.204422 2.204423
										CHANNELS 3 Xrotation Yrotation Zrotation
										JOINT LeftHandThumb3
										{
											OFFSET 3.252098 -1.877594 1.877601
											CHANNELS 3 Xrotation Yrotation Zrotation
											JOINT LeftHandThumb4
											{
												OFFSET 5.251778 -3.032120 3.032117
												CHANNELS 3 Xrotation Yrotation Zrotation
												End Site
												{
													OFFSET 0.000023 6.780014 0.000000
												}
											}
										}
									}
								}
							}
						}
					}
				}
				JOINT RightShoulder
				{
					OFFSET -12.896300 26.716293 -4.548400
					CHANNELS 3 Xrotation Yrotation Zrotation
					JOINT RightArm
					{
						OFFSET -19.027000 -4.857010 -1.718400
						CHANNELS 3 Xrotation Yrotation Zrotation
						JOINT RightForeArm
						{
							OFFSET -24.179897 0.000000 0.000000
							CHANNELS 3 Xrotation Yrotation Zrotation
							JOINT RightHand
							{
								OFFSET -27.156403 0.000000 0.000000
								CHANNELS 3 Xrotation Yrotation Zrotation
								JOINT RightHandThumb1
								{
									OFFSET -6.591202 -4.852203 5.988100
									CHANNELS 3 Xrotation Yrotation Zrotation
									JOINT RightHandThumb2
									{
										OFFSET -3.818176 -2.204422 2.204423
										CHANNELS 3 Xrotation Yrotation Zrotation
										JOINT RightHandThumb3
										{
											OFFSET -3.252098 -1.877594 1.877601
											CHANNELS 3 Xrotation Yrotation Zrotation
											JOINT RightHandThumb4
											{
												OFFSET -5.251778 -3.032120 3.032117
												CHANNELS 3 Xrotation Yrotation Zrotation
												End Site
												{
													OFFSET -0.000023 6.780014 0.000000
												}
											}
										}
									}
								}
								JOINT RightHandIndex1
								{
									OFFSET -16.029404 0.000000 0.000000
									CHANNELS 3 Xrotation Yrotation Zrotation
									JOINT RightHandIndex2
									{
										OFFSET -5.213303 0.000000 0.000000
										CHANNELS 3 Xrotation Yrotation Zrotation
										JOINT RightHandIndex3
										{
											OFFSET -6.386528 0.000000 0.000000
											CHANNELS 3 Xrotation Yrotation Zrotation
											JOINT RightHandIndex4
											{
												OFFSET -5.189026 0.000000 0.000000
												CHANNELS 3 Xrotation Yrotation Zrotation
												End Site
												{
													OFFSET 0.236702 5.183624 0.001972
												}
											}
										}
									}
								}
							}
						}
					}
				}
			}
		}
	}
	JOINT LeftUpLeg
	{
		OFFSET 14.073000 -7.904099 -1.463000
		CHANNELS 3 Xrotation Yrotation Zrotation
		JOINT LeftLeg
		{
			OFFSET -0.109806 -34.073280 4.093200
			CHANNELS 3 Xrotation Yrotation Zrotation
			JOINT LeftFoot
			{
				OFFSET 0.109806 -29.899420 -6.319000
				CHANNELS 3 Xrotation Yrotation Zrotation
				JOINT LeftToeBase
				{
					OFFSET 1.551100 -14.988700 20.535801
					CHANNELS 3 Xrotation Yrotation Zrotation
					JOINT LeftToe_End
					{
						OFFSET 0.221200 0.570800 13.248301
						CHANNELS 3 Xrotation Yrotation Zrotation
						End Site
						{
							OFFSET 0.000000 13.262435 0.000000
						}
					}
				}
			}
		}
	}
	JOINT RightUpLeg
	{
		OFFSET -13.839300 -7.904099 -1.463000
		CHANNELS 3 Xrotation Yrotation Zrotation
		JOINT RightLeg
		{
			OFFSET 0.109694 -34.073219 4.093300
			CHANNELS 3 Xrotation Yrotation Zrotation
			JOINT RightFoot
			{
				OFFSET -0.109694 -29.899384 -6.319200
				CHANNELS 3 Xrotation Yrotation Zrotation
				JOINT RightToeBase
				{
					OFFSET -1.551100 -14.988700 20.535801
					CHANNELS 3 Xrotation Yrotation Zrotation
					JOINT RightToe_End
					{
						OFFSET -0.221200 0.570900 13.248299
						CHANNELS 3 Xrotation Yrotation Zrotation
						End Site
						{
							OFFSET 0.000000 13.262440 0.000000
						}
					}
				}
			}
		}
	}
}
MOTION
Frames: 8
Frame Time: 0.033333
-10.691283 68.469193 186.823120 5.966199 -7.392862 2.697735 1.623843 -0.485228 -4.112581 -3.945840 -0.051568 -0.658750 -3.946649 -0.016308 -0.665383 6.758176 0.635285 -0.526952 -1.233975 1.693192 5.134018 0.000000 -0.000000 -0.000000 -54.897270 -6.853098 13.076430 -63.992172 -30.613546 -36.081209 0.190618 -90.248485 0.190040 -45.707250 -9.815328 21.528427 3.583311 -16.205013 -33.161111 0.369807 2.050267 -20.446977 0.127195 1.215408 -11.948480 -0.000002 -0.000000 -0.000001 -3.418678 -8.184355 -10.261354 2.801371 2.810598 -2.852478 -3.195198 9.252598 6.692039 0.000001 0.000000 0.000000 -58.326844 10.548735 -21.581764 -55.952725 22.310430 37.709416 0.001356 95.838824 -0.001341 -24.782107 13.175099 -36.693696 -13.813307 13.206003 18.727872 7.599344 -19.670405 1.085982 -2.069790 -11.332424 -7.069111 -0.000003 0.000000 -0.000001 -1.762914 6.498757 26.926773 0.334921 -1.735827 21.839853 0.035182 -0.572034 7.039990 -0.000001 0.000001 0.000000 -62.053198 -0.090877 -0.522890 14.778127 -3.666934 0.035686 27.715316 -1.002256 -4.614152 -4.408541 0.000000 0.000002 -0.000001 0.000000 -0.000000 44.738425 -20.127598 -6.613964 5.334727 8.893415 -1.676379 -24.179198 27.715658 -1.781607 -36.028240 0.008902 -0.676174 -0.000000 0.000000 0.000000 
-10.943239 67.452782 191.897385 7.637053 -6.767584 4.064390 4.762809 0.310225 -5.562402 -4.477801 0.278779 -0.810794 -4.482946 0.315288 -0.810552 6.094757 0.512235 -0.537969 -5.642973 0.419946 5.819527 -0.000001 -0.000000 0.000000 -47.628490 -9.198192 12.549888 -63.357340 -30.703049 -31.136059 0.012091 -91.761221 0.012067 -51.037851 -9.448972 25.609849 4.164895 -16.409741 -31.492052 0.376064 2.067009 -20.621528 0.129396 1.225716 -12.051373 -0.000001 -0.000000 0.000000 -3.148636 -8.414286 -10.184318 2.787137 2.722092 -2.892035 -3.375090 8.800636 6.537408 -0.000000 -0.000001 -0.000001 -47.186645 15.742731 -26.788376 -50.785100 13.634886 21.472667 0.000015 102.035103 -0.000005 -33.656645 8.260368 -36.481495 -12.282054 13.336559 18.457801 6.907194 -16.804886 1.126412 -2.069277 -11.332905 -7.068815 0.000001 0.000000 0.000001 -0.049765 9.300392 25.306939 0.370963 -1.823175 23.000828 0.050397 -0.683807 8.424929 0.000004 -0.000000 0.000000 -62.883803 -0.621425 -2.458938 14.656298 -4.075704 -0.001695 36.742712 -1.269382 -4.969402 -2.715342 0.000004 -0.000002 0.000000 -0.000000 0.000000 44.550735 -20.635999 -7.957282 7.359306 11.780843 -1.414047 -14.669846 32.836817 -8.131373 -44.987280 0.338542 -3.915823 0.000000 0.000000 -0.000000 
-11.397809 66.202003 197.141617 7.488293 -6.217471 5.017460 7.602462 0.863123 -6.656231 -3.361684 0.443592 -1.102674 -3.370941 0.494600 -1.103766 4.942960 0.410973 -0.503409 -12.374482 -0.088503 5.572437 -0.000000 -0.000000 -0.000000 -35.832856 -16.757797 17.242169 -61.533406 -26.422689 -18.073312 0.184948 -90.430277 0.185047 -61.063059 -14.854885 29.016918 5.225435 -17.261606 -28.922494 0.413663 2.164125 -21.639074 0.142171 1.284161 -12.635519 0.000005 -0.000001 0.000001 -2.641086 -8.916193 -10.534211 2.761982 2.193993 -3.110208 -3.529802 8.266029 6.003678 -0.000000 0.000002 -0.000001 -29.871839 19.835501 -33.783454 -57.298484 3.321876 2.542551 0.000135 103.433680 -0.000140 -44.230249 7.686481 -35.066997 -8.344605 13.122687 16.295064 5.462968 -10.691188 1.657173 -2.056097 -11.353330 -7.047665 0.000002 0.000001 -0.000001 3.700707 14.440821 23.255421 0.409911 -1.912249 24.195486 0.087054 -0.897233 11.083954 -0.000000 -0.000000 -0.000000 -67.874909 -0.346691 -4.302665 29.949717 -3.980796 0.250900 30.233836 -0.724425 -4.310368 -2.042718 -0.000002 0.000001 -0.000000 -0.000001 -0.000000 35.449607 -17.778429 -12.139083 23.858710 17.279241 -2.191378 1.784689 33.013613 -8.007584 -63.492134 5.715770 -12.386619 -0.000000 -0.000001 0.000000 
-11.699663 65.931206 201.121902 7.357068 -6.252251 5.777837 10.147226 0.974159 -7.358708 -1.403665 0.448597 -1.348315 -1.414523 0.512977 -1.353175 3.254456 0.371415 -0.550384 -20.015028 0.313693 4.452192 0.000000 0.000000 0.000000 -22.678731 -20.682776 26.879530 -65.574679 -17.321474 -9.607373 89.995932 -90.056317 89.997714 -65.773718 -17.463274 28.916641 6.743345 -17.241870 -24.427103 0.411939 2.159837 -21.593877 0.141544 1.281378 -12.607687 0.000003 -0.000001 0.000003 -2.225960 -9.289242 -10.136551 3.002228 2.158334 -3.089962 -3.983865 7.168560 5.807474 0.000001 0.000000 -0.000001 -13.587001 20.106383 -38.538410 -69.800558 3.437101 -2.979952 0.000027 95.693641 -0.000014 -45.913525 13.308989 -30.363234 -4.700768 12.044434 11.476420 4.414773 -6.070153 1.775527 -2.050937 -11.362379 -7.039009 0.000001 -0.000003 -0.000002 7.230662 15.983853 19.058215 0.326127 -1.713690 21.547239 0.097469 -0.948894 11.731041 0.000001 -0.000000 -0.000000 -69.959237 0.297748 -5.324342 40.859411 -3.522198 0.478673 21.578707 -0.137611 -3.693234 -2.042727 0.000005 0.000002 0.000000 0.000000 0.000000 28.017298 -14.032919 -15.283575 17.308565 19.310412 -0.748099 42.317209 31.695940 12.004448 -108.935350 23.454521 4.555921 -0.000000 -0.000000 -0.000001 
-11.986240 65.465736 202.927216 8.446563 -5.744095 6.538744 12.338741 0.868103 -7.950020 0.185886 0.375743 -1.418215 0.175910 0.437696 -1.426504 1.474378 0.345790 -0.652510 -26.655822 0.856680 3.044024 -0.000000 -0.000000 0.000000 -13.263071 -15.033014 35.857738 -70.181710 -9.092513 -12.234297 0.008672 -88.035223 0.008783 -52.764721 -11.420009 26.318915 6.958616 -13.614584 -17.597562 0.256001 1.714519 -16.983395 0.088310 1.014474 -9.950511 -0.000000 0.000000 0.000000 -2.590955 -8.708077 -6.876625 3.913711 4.354086 -2.087446 -5.130475 4.868137 7.286143 -0.000000 0.000000 0.000001 -3.009680 18.350539 -41.027198 -72.568294 10.475837 1.743181 0.000211 77.356981 -0.000233 -30.156853 21.316015 -25.667632 -4.224743 10.255418 4.635202 4.890417 -7.417713 0.463904 -2.103352 -11.282719 -7.132130 0.000003 -0.000001 -0.000001 6.790264 10.006684 12.744582 0.119924 -1.051165 13.016716 0.043702 -0.637162 7.846383 -0.000002 -0.000000 -0.000002 -71.949493 0.998156 -5.998231 45.116084 -3.707369 0.500903 18.229029 0.161648 -3.416971 -2.042712 0.000001 0.000000 -0.000000 -0.000000 -0.000000 18.411087 -10.228627 -16.515483 25.859576 17.210480 -0.362704 52.092316 30.635089 12.673117 32.438945 18.159217 34.663292 -0.000000 -0.000001 0.000000 
-12.136411 66.328568 205.138046 10.404831 -4.639103 7.282141 14.104574 0.274197 -8.025909 1.023192 0.258891 -1.388719 1.015610 0.307658 -1.399603 0.285216 0.267495 -0.628792 -31.105433 0.698124 2.069234 0.000000 -0.000000 -0.000000 -8.165069 -5.250218 39.680578 -73.172534 -11.728050 -23.699472 -0.000050 -73.418673 -0.000051 -26.811419 -3.890711 21.206983 3.988561 -7.479858 -9.665223 0.058253 0.824995 -8.077823 0.020273 0.487540 -4.763251 0.000001 -0.000002 0.000003 -4.135222 -7.311974 -0.891091 5.163966 8.683234 -0.234801 -6.512497 1.800899 10.332802 -0.000001 0.000001 -0.000002 2.188407 17.037029 -41.530310 -69.030830 21.743183 14.883559 -0.000009 53.123982 0.000011 -10.221799 22.728529 -26.684779 -5.933664 8.635961 -1.806652 5.950511 -12.279792 -1.441859 -2.215655 -11.108216 -7.364219 0.000004 -0.000001 0.000001 2.202886 2.513852 5.538218 0.007693 -0.267901 3.290433 0.003303 -0.175717 2.157539 -0.000003 0.000002 0.000003 -72.139372 1.771390 -7.052574 45.873548 -4.141247 0.361138 15.730983 0.370490 -2.608463 -2.042719 0.000010 0.000001 0.000000 0.000000 0.000000 6.801677 -7.042509 -17.431578 37.605246 18.225748 -0.362206 50.071557 29.826852 14.629411 32.818168 15.325681 34.138628 -0.000001 -0.000002 -0.000000 
-12.288438 67.985100 207.570877 11.726319 -3.105012 7.801892 15.617002 -0.703695 -7.674161 1.490341 0.068818 -1.369949 1.486147 0.108026 -1.381377 -0.129167 0.150878 -0.346895 -33.440774 0.003759 1.750623 -0.000000 -0.000000 0.000000 -3.089047 -2.037192 36.555651 -76.554598 -29.536620 -38.403531 -0.000004 -42.838106 -0.000002 -7.856991 -0.254045 19.768722 0.296242 -3.563698 -3.131157 0.000270 0.056545 -0.551607 0.000019 0.016737 -0.163442 -0.000001 0.000000 -0.000000 -6.071113 -6.249189 4.853283 5.961285 12.224656 1.185116 -7.262244 -0.231531 12.817515 -0.000001 -0.000002 0.000002 5.918452 18.279895 -42.140222 -62.138739 34.567406 29.483594 -0.000000 32.571782 0.000001 -5.956531 12.786770 -24.464553 -7.263750 7.888007 -5.557298 6.470847 -15.118685 -2.353339 -2.283857 -11.007284 -7.626906 0.000001 0.000001 -0.000003 0.013294 0.105782 0.921757 -0.000004 0.000004 0.000018 0.000645 0.077757 -0.954644 -0.000000 0.000002 -0.000002 -70.141692 2.394470 -8.427991 44.641030 -4.916445 0.181752 13.689468 0.516455 -1.590698 -2.042721 -0.000009 0.000001 -0.000000 -0.000002 0.000000 -3.327763 -5.156014 -17.959431 46.019366 19.147353 -0.266979 49.256715 29.374181 14.704707 33.997410 12.557719 34.819874 -0.000000 0.000003 0.000001 
-12.534653 70.300400 210.145828 11.956040 -1.289793 7.731397 17.066402 -1.771322 -6.859046 1.975578 -0.173665 -1.299555 1.975060 -0.139503 -1.307363 -0.375548 0.078667 0.116770 -34.596305 -0.332856 1.773141 -0.000000 0.000000 0.000000 0.874370 -8.354692 27.696130 -64.904979 -53.355372 -42.086973 -0.000000 -14.618357 -0.000000 -0.790386 1.424620 20.900118 0.184288 -3.313394 0.945378 0.000001 -0.000001 -0.000012 0.003588 -0.205230 2.003228 0.000000 0.000000 -0.000001 -7.405135 -5.795812 9.130592 6.230827 13.065681 1.394365 -7.264860 -0.251375 13.388858 0.000001 -0.000001 0.000004 7.234735 22.333858 -34.246954 -40.301535 42.736217 24.680141 0.000001 23.525424 -0.000000 -6.724573 -1.675069 -23.113992 -7.605202 7.649157 -8.185354 6.561329 -14.871617 -2.110031 -2.186389 -11.193790 -7.770826 0.000003 -0.000001 -0.000001 0.143618 1.602367 -1.277460 0.000001 -0.000007 0.000070 0.001528 0.119392 -1.465702 0.000000 -0.000000 -0.000001 -65.896839 2.448358 -9.633492 41.778426 -6.287608 -0.209792 12.149907 0.632716 -0.442361 -2.042734 0.000011 0.000002 -0.000000 -0.000000 0.000000 -9.794584 -3.838142 -17.406816 49.599755 20.481866 0.050376 48.770529 30.595870 15.535055 42.536984 8.389308 25.569124 -0.000001 0.000001 -0.000000 
